<svg width="320" height="200" viewBox="0 0 320 200" fill="none" xmlns="http://www.w3.org/2000/svg">
  <rect width="320" height="200" rx="28" fill="url(#bg)"/>
  <g filter="url(#shadow)">
    <rect x="60" y="56" width="200" height="112" rx="24" fill="#FFFFFF" fill-opacity="0.94" />
    <rect x="78" y="74" width="164" height="76" rx="18" fill="#F1F5FF" />
    <rect x="96" y="90" width="128" height="44" rx="12" fill="#3773F6" fill-opacity="0.15" />
    <circle cx="120" cy="112" r="16" fill="#FF8D1F" fill-opacity="0.9" />
    <path d="M120 104c4 0 8 4 8 8s-4 8-8 8-8-4-8-8 4-8 8-8Z" fill="#fff"/>
    <circle cx="164" cy="112" r="16" fill="#0095DD" fill-opacity="0.9" />
    <path d="M164 104c4 0 8 4 8 8s-4 8-8 8-8-4-8-8 4-8 8-8Z" fill="#fff"/>
  </g>
  <path d="M72 156c28-18 56-18 84 0 28 18 56 18 84 0" stroke="#FF2EB7" stroke-width="6" stroke-linecap="round" stroke-dasharray="10 14"/>
  <path d="M96 60 84 36" stroke="#3773F6" stroke-width="6" stroke-linecap="round"/>
  <path d="M224 60 236 36" stroke="#FF8D1F" stroke-width="6" stroke-linecap="round"/>
  <defs>
    <linearGradient id="bg" x1="36" y1="24" x2="284" y2="188" gradientUnits="userSpaceOnUse">
      <stop stop-color="#ECFCFF"/>
      <stop offset="0.7" stop-color="#FFE7AD"/>
      <stop offset="1" stop-color="#FFD7F4"/>
    </linearGradient>
    <filter id="shadow" x="40" y="40" width="240" height="152" filterUnits="userSpaceOnUse" color-interpolation-filters="sRGB">
      <feOffset dy="6"/>
      <feGaussianBlur stdDeviation="12"/>
      <feColorMatrix type="matrix" values="0 0 0 0 0.2 0 0 0 0 0.35 0 0 0 0 0.6 0 0 0 0.18 0"/>
      <feBlend in2="BackgroundImageFix" result="effect1_dropShadow"/>
      <feBlend in="SourceGraphic" in2="effect1_dropShadow" result="shape"/>
    </filter>
  </defs>
</svg>
