<svg xmlns="http://www.w3.org/2000/svg" version="1.1" xmlns:xlink="http://www.w3.org/1999/xlink" width="256" height="256" viewBox="0 0 256 256"><rect width="256" height="256" fill="#99e0ff" rx="48" ry="48"></rect><path d="M70 118 C70 54 186 54 186 118" stroke-linecap="round" stroke-width="20" stroke="#235ad0" fill="none"></path><path d="M82 118 C82 70 174 70 174 118" stroke-linecap="round" stroke-width="6" stroke="#f1f5fb" fill="none" opacity="0.35"></path><g><rect width="62" height="96" rx="30" ry="30" fill="#f1f5fb" stroke-width="6" stroke="#235ad0" x="53" y="102"></rect><rect width="38" height="70" rx="18" ry="18" fill="#fdfdfd" x="65" y="115"></rect></g><g><rect width="62" height="96" rx="30" ry="30" fill="#f1f5fb" stroke-width="6" stroke="#235ad0" x="141" y="102"></rect><rect width="38" height="70" rx="18" ry="18" fill="#fdfdfd" x="153" y="115"></rect></g><rect width="18" height="66" rx="10" ry="10" fill="#235ad0" x="189" y="127" transform="matrix(0.9612616959383189,0.27563735581699916,-0.27563735581699916,0.9612616959383189,51.77216113493273,-48.37806780189686)"></rect><rect width="12" height="54" rx="8" ry="8" fill="#ff67d1" x="202" y="145" transform="matrix(0.9612616959383189,0.27563735581699916,-0.27563735581699916,0.9612616959383189,55.46719244535353,-50.669581711326686)"></rect><path d="M198 102 Q 224 128 198 154" stroke-linecap="round" stroke-width="6" stroke="#ff67d1" fill="none"></path><path d="M182 108 Q 208 130 182 150" stroke-linecap="round" stroke-width="4" stroke="#ff67d1" fill="none" opacity="0.7"></path><circle r="10" cx="68" cy="70" fill="#ffb6eb" opacity="0.85"></circle><circle r="7" cx="50" cy="100" fill="#ff90df" opacity="0.8"></circle></svg>