<svg xmlns="http://www.w3.org/2000/svg" version="1.1" xmlns:xlink="http://www.w3.org/1999/xlink" width="256" height="256" viewBox="0 0 256 256"><rect width="256" height="256" fill="#f1f5fb" rx="48" ry="48"></rect><g><rect width="184" height="208" fill="#fdfdfd" stroke-width="4" stroke="#e2e8f0" rx="28" ry="28" x="36" y="30"></rect><rect width="188" height="32" rx="16" ry="16" fill="#ff90df" x="34" y="20"></rect><g><rect width="18" height="12" rx="4" ry="4" fill="#cbd5e1" x="51" y="48"></rect><rect width="18" height="12" rx="4" ry="4" fill="#cbd5e1" x="78" y="48"></rect><rect width="18" height="12" rx="4" ry="4" fill="#cbd5e1" x="105" y="48"></rect><rect width="18" height="12" rx="4" ry="4" fill="#cbd5e1" x="132" y="48"></rect><rect width="18" height="12" rx="4" ry="4" fill="#cbd5e1" x="159" y="48"></rect><rect width="18" height="12" rx="4" ry="4" fill="#cbd5e1" x="186" y="48"></rect></g></g><g><rect width="20" height="140" rx="12" ry="12" fill="#5d93ff" x="178" y="78" transform="matrix(0.9396926207859084,0.3420201433256687,-0.3420201433256687,0.9396926207859084,61.95676850444818,-55.37429482154016)"></rect><rect width="20" height="32" rx="8" ry="8" fill="#ff8d1f" x="178" y="54" transform="matrix(0.9396926207859084,0.3420201433256687,-0.3420201433256687,0.9396926207859084,35.27919732504603,-60.07827040023932)"></rect><polygon points="178,214 198,214 188,232" fill="#f1f5fb" transform="matrix(0.9396926207859084,0.3420201433256687,-0.3420201433256687,0.9396926207859084,87.26625911054765,-50.91154875969738)"></polygon></g></svg>