<svg xmlns="http://www.w3.org/2000/svg" version="1.1" xmlns:xlink="http://www.w3.org/1999/xlink" width="256" height="256" viewBox="0 0 256 256"><rect width="256" height="256" fill="#f1f5fb" rx="48" ry="48"></rect><circle r="106" cx="128" cy="146" fill="#3773f6" opacity="0.95"></circle><ellipse rx="42" ry="27" cx="42" cy="98" fill="#fdfdfd" stroke-width="4" stroke="#8ab1ff" transform="matrix(0.9510565162951535,-0.3090169943749474,0.3090169943749474,0.9510565162951535,-28.228039133141294,17.77517516682275)"></ellipse><ellipse rx="42" ry="27" cx="214" cy="98" fill="#fdfdfd" stroke-width="4" stroke="#8ab1ff" transform="matrix(0.9510565162951535,0.3090169943749474,-0.3090169943749474,0.9510565162951535,40.75757096158199,-61.3331753931638)"></ellipse><ellipse rx="42" ry="27" cx="32" cy="186" fill="#fdfdfd" stroke-width="4" stroke="#8ab1ff" transform="matrix(0.984807753012208,-0.17364817766693033,0.17364817766693033,0.984807753012208,-31.812409142439705,8.382499625071063)"></ellipse><ellipse rx="42" ry="27" cx="224" cy="186" fill="#fdfdfd" stroke-width="4" stroke="#8ab1ff" transform="matrix(0.984807753012208,0.17364817766693033,-0.17364817766693033,0.984807753012208,35.70162437131444,-36.071433857663095)"></ellipse><rect width="48" height="62" rx="14" ry="14" fill="#f9fafc" stroke-width="4" stroke="#ff90df" x="72" y="97" transform="matrix(0.9510565162951535,-0.3090169943749474,0.3090169943749474,0.9510565162951535,-34.855600844327995,35.93039737421529)"></rect><rect width="48" height="62" rx="14" ry="14" fill="#f9fafc" stroke-width="4" stroke="#ff90df" x="138" y="103" transform="matrix(0.9781476007338057,0.20791169081775931,-0.20791169081775931,0.9781476007338057,31.400255250703225,-30.753472410806978)"></rect><rect width="48" height="62" rx="14" ry="14" fill="#f9fafc" stroke-width="4" stroke="#ff90df" x="104" y="143" transform="matrix(0.9945218953682733,0.10452846326765346,-0.10452846326765346,0.9945218953682733,18.889150001432725,-12.426453092339216)"></rect><g><rect width="132" height="92" rx="22" ry="22" fill="#ff8d1f" x="62" y="96"></rect><rect width="120" height="80" rx="18" ry="18" fill="#fdfdfd" x="68" y="102"></rect><rect width="32" height="96" rx="12" ry="12" fill="#ff90df" x="70" y="94"></rect><circle r="9" cx="174" cy="138" fill="#ff90df" opacity="0.9"></circle></g><path d="M36 54 Q 96 4 140 50" stroke-linecap="round" stroke-width="6" stroke="#ff90df" fill="none" opacity="0.85"></path><circle r="8" cx="194" cy="36" fill="#fdfdfd" stroke-width="4" stroke="#ff90df"></circle><circle r="6" cx="18" cy="128" fill="#ffb6eb" opacity="0.8"></circle><circle r="5" cx="240" cy="158" fill="#ff90df" opacity="0.8"></circle></svg>