<svg xmlns="http://www.w3.org/2000/svg" version="1.1" xmlns:xlink="http://www.w3.org/1999/xlink" width="256" height="256" viewBox="0 0 256 256"><rect width="256" height="256" fill="#f9fafc" rx="48" ry="48"></rect><g><path d="M90 210 C80 150 96 96 128 96 C160 96 176 150 166 210 C150 234 106 234 90 210" fill="#fdfdfd" stroke-width="4" stroke="#f1f5fb"></path></g><g><rect width="150" height="24" rx="12" ry="12" fill="#3773f6" x="65" y="72" transform="matrix(0.984807753012208,-0.17364817766693033,0.17364817766693033,0.984807753012208,-12.459532345731276,25.586893620344775)"></rect><rect width="110" height="16" rx="8" ry="8" fill="#f57300" x="109" y="104" transform="matrix(0.984807753012208,-0.17364817766693033,0.17364817766693033,0.984807753012208,-16.95706739269832,30.17983280000928)"></rect></g><rect width="20" height="120" rx="12" ry="12" fill="#3773f6" x="62" y="58" transform="matrix(0.984807753012208,-0.17364817766693033,0.17364817766693033,0.984807753012208,-19.396643181576763,14.295353936578437)"></rect><circle r="13" cx="112" cy="118" fill="#ffb6eb" opacity="0.88"></circle><circle r="11.5" cx="144" cy="108" fill="#ffb6eb" opacity="0.76"></circle><circle r="10" cx="176" cy="98" fill="#ffb6eb" opacity="0.64"></circle><circle r="8.5" cx="208" cy="88" fill="#ffb6eb" opacity="0.52"></circle></svg>